<svg width="258" height="33" viewBox="0 0 258 33" fill="none" xmlns="http://www.w3.org/2000/svg">
<path d="M85.2982 17.189C85.2982 19.7378 84.5425 21.771 83.028 23.2855C81.3278 25.0881 79.0929 25.9879 76.32 25.9879C73.5472 25.9879 71.4243 25.0689 69.5864 23.2342C67.7517 21.3995 66.8328 19.139 66.8328 16.4526C66.8328 13.7662 67.7517 11.5057 69.5864 9.66776C71.4211 7.83307 73.6656 6.91412 76.32 6.91412C77.6616 6.91412 78.9296 7.15107 80.1207 7.62815C81.3118 8.10524 82.2884 8.77443 83.0536 9.64215L81.3694 11.3263C80.8091 10.6475 80.0823 10.116 79.1889 9.7318C78.2956 9.35077 77.3414 9.15866 76.32 9.15866C74.3316 9.15866 72.6474 9.84707 71.2706 11.2239C69.9098 12.6167 69.231 14.3618 69.231 16.4526C69.231 18.5434 69.9098 20.2853 71.2706 21.6813C72.6474 23.0581 74.3316 23.7465 76.32 23.7465C78.1387 23.7465 79.6532 23.2374 80.8603 22.216C82.0674 21.1946 82.7654 19.7922 82.9512 18.0087H76.32V15.8154H85.1701C85.2565 16.2925 85.2982 16.7504 85.2982 17.1922V17.189Z" fill="#676C72"/>
<path d="M88.1541 25.5811V7.32385H93.7382C96.527 7.32385 98.7652 8.16596 100.459 9.84696C102.15 11.5312 102.995 13.7309 102.995 16.4525C102.995 19.1741 102.15 21.3962 100.459 23.0708C98.7684 24.7454 96.527 25.5811 93.7382 25.5811H88.1541ZM90.501 9.56519V23.3366H93.7382C95.8642 23.3366 97.5388 22.7282 98.762 21.5147C99.9851 20.298 100.597 18.6106 100.597 16.4525C100.597 14.2944 99.9851 12.6262 98.762 11.4031C97.5388 10.18 95.8642 9.56839 93.7382 9.56839H90.501V9.56519Z" fill="#676C72"/>
<path d="M123.346 17.189C123.346 19.7378 122.591 21.771 121.076 23.2855C119.376 25.0881 117.141 25.9879 114.368 25.9879C111.596 25.9879 109.473 25.0689 107.635 23.2342C105.8 21.3995 104.881 19.139 104.881 16.4526C104.881 13.7662 105.8 11.5057 107.635 9.66776C109.469 7.83307 111.714 6.91412 114.368 6.91412C115.71 6.91412 116.978 7.15107 118.169 7.62815C119.36 8.10524 120.337 8.77443 121.102 9.64215L119.418 11.3263C118.857 10.6475 118.131 10.116 117.237 9.7318C116.344 9.35077 115.39 9.15866 114.368 9.15866C112.38 9.15866 110.696 9.84707 109.319 11.2239C107.958 12.6167 107.279 14.3618 107.279 16.4526C107.279 18.5434 107.958 20.2853 109.319 21.6813C110.696 23.0581 112.38 23.7465 114.368 23.7465C116.187 23.7465 117.702 23.2374 118.909 22.216C120.116 21.1946 120.814 19.7922 120.999 18.0087H114.368V15.8154H123.218C123.305 16.2925 123.346 16.7504 123.346 17.1922V17.189Z" fill="#676C72"/>
<path d="M132.116 25.5811H129.516L136.4 7.32385H139.051L145.935 25.5811H143.336L141.574 20.6342H133.9L132.116 25.5811ZM137.675 10.2024L134.69 18.4409H140.761L137.777 10.2024H137.675Z" fill="#676C72"/>
<path d="M150.018 7.32068V25.5779H147.671V7.32068H150.018Z" fill="#676C72"/>
<path d="M158.282 31.4952C157.584 31.4952 156.931 31.4055 156.32 31.2262C155.708 31.0469 155.151 30.7972 154.648 30.4738C154.145 30.1504 153.716 29.7694 153.361 29.3275C153.002 28.8856 152.733 28.3925 152.545 27.8482L154.763 26.9293C155.02 27.6593 155.461 28.2452 156.089 28.6903C156.717 29.1322 157.45 29.3531 158.282 29.3531C159.557 29.3531 160.552 28.9721 161.266 28.2068C161.981 27.4416 162.339 26.3881 162.339 25.0433V23.8458H162.237C161.795 24.5086 161.196 25.0305 160.44 25.4148C159.685 25.7958 158.862 25.9879 157.978 25.9879C156.345 25.9879 154.943 25.3507 153.771 24.0764C152.615 22.7668 152.035 21.185 152.035 19.3343C152.035 17.4836 152.612 15.9083 153.771 14.6179C154.943 13.3276 156.345 12.6808 157.978 12.6808C158.862 12.6808 159.682 12.8729 160.44 13.2539C161.196 13.635 161.795 14.1601 162.237 14.8229H162.339V13.0874H164.584V25.0465C164.584 27.0509 164.014 28.6263 162.874 29.763C161.718 30.9188 160.187 31.4984 158.282 31.4984V31.4952ZM158.359 23.8458C159.515 23.8458 160.46 23.4296 161.19 22.5971C161.955 21.7646 162.336 20.6759 162.336 19.3343C162.336 17.9927 161.955 16.9457 161.19 16.0972C160.44 15.2487 159.499 14.8229 158.359 14.8229C157.219 14.8229 156.294 15.2487 155.529 16.0972C154.763 16.9489 154.382 18.028 154.382 19.3343C154.382 20.6407 154.763 21.739 155.529 22.5747C156.294 23.4264 157.238 23.849 158.359 23.849V23.8458Z" fill="#676C72"/>
<path d="M170.472 8.77422C170.472 9.23209 170.309 9.62593 169.989 9.94612C169.665 10.2695 169.275 10.4296 168.817 10.4296C168.359 10.4296 167.965 10.2695 167.645 9.94612C167.321 9.62273 167.161 9.23209 167.161 8.77422C167.161 8.31635 167.321 7.92572 167.645 7.60233C167.968 7.27893 168.359 7.11884 168.817 7.11884C169.275 7.11884 169.665 7.28214 169.989 7.60233C170.312 7.92572 170.472 8.31635 170.472 8.77422ZM169.989 13.084V25.581H167.642V13.084H169.989Z" fill="#676C72"/>
<path d="M178.531 25.9879C176.697 25.9879 175.182 25.3603 173.991 24.102C172.8 22.8436 172.208 21.2555 172.208 19.3343C172.208 17.4132 172.784 15.8443 173.943 14.5795C175.099 13.3116 176.578 12.6808 178.381 12.6808C180.183 12.6808 181.708 13.2795 182.806 14.4803C183.901 15.6778 184.452 17.3588 184.452 19.5169L184.426 19.773H174.609C174.644 20.9961 175.051 21.9823 175.832 22.7316C176.613 23.4808 177.548 23.8522 178.637 23.8522C180.132 23.8522 181.307 23.103 182.156 21.6077L184.247 22.6291C183.686 23.6825 182.908 24.5086 181.912 25.1042C180.917 25.6997 179.793 25.9975 178.534 25.9975L178.531 25.9879ZM174.782 17.8262H181.948C181.88 16.9585 181.528 16.2413 180.888 15.6714C180.251 15.1014 179.396 14.8165 178.326 14.8165C177.443 14.8165 176.681 15.0886 176.043 15.6329C175.406 16.1773 174.984 16.9073 174.782 17.8262Z" fill="#676C72"/>
<path d="M188.934 25.5812H186.587V13.0841H188.832V15.1237H188.934C189.171 14.461 189.661 13.8974 190.401 13.4267C191.141 12.9593 191.867 12.7255 192.581 12.7255C193.295 12.7255 193.84 12.828 194.317 13.0329L193.603 15.3031C193.315 15.1846 192.854 15.1237 192.226 15.1237C191.342 15.1237 190.574 15.4824 189.917 16.1964C189.261 16.9104 188.934 17.7429 188.934 18.6939V25.578V25.5812Z" fill="#676C72"/>
<path d="M204.899 22.1135C204.899 23.2022 204.422 24.1211 203.471 24.8671C202.52 25.6164 201.319 25.9878 199.875 25.9878C198.617 25.9878 197.512 25.6612 196.561 25.0048C195.61 24.3516 194.928 23.4871 194.521 22.4177L196.612 21.5244C196.92 22.2736 197.365 22.8564 197.951 23.2726C198.537 23.6888 199.18 23.897 199.875 23.897C200.624 23.897 201.249 23.7369 201.748 23.4135C202.251 23.0901 202.501 22.7091 202.501 22.2672C202.501 21.4667 201.889 20.8808 200.666 20.5062L198.524 19.9714C196.094 19.3599 194.877 18.188 194.877 16.4525C194.877 15.3127 195.341 14.4001 196.267 13.7117C197.192 13.0233 198.38 12.6775 199.824 12.6775C200.928 12.6775 201.927 12.94 202.821 13.4684C203.714 13.9967 204.339 14.7011 204.694 15.5848L202.603 16.4525C202.366 15.9242 201.979 15.5144 201.444 15.2166C200.909 14.9188 200.311 14.7715 199.648 14.7715C199.036 14.7715 198.489 14.9252 198.002 15.2294C197.518 15.5368 197.275 15.9082 197.275 16.3501C197.275 17.0641 197.948 17.5732 199.289 17.8806L201.175 18.3641C203.657 18.9756 204.899 20.2244 204.899 22.1135Z" fill="#676C72"/>
<path d="M85.2982 17.189C85.2982 19.7378 84.5425 21.771 83.028 23.2855C81.3278 25.0881 79.0929 25.9879 76.32 25.9879C73.5472 25.9879 71.4243 25.0689 69.5864 23.2342C67.7517 21.3995 66.8328 19.139 66.8328 16.4526C66.8328 13.7662 67.7517 11.5057 69.5864 9.66776C71.4211 7.83307 73.6656 6.91412 76.32 6.91412C77.6616 6.91412 78.9296 7.15107 80.1207 7.62815C81.3118 8.10524 82.2884 8.77443 83.0536 9.64215L81.3694 11.3263C80.8091 10.6475 80.0823 10.116 79.1889 9.7318C78.2956 9.35077 77.3414 9.15866 76.32 9.15866C74.3316 9.15866 72.6474 9.84707 71.2706 11.2239C69.9098 12.6167 69.231 14.3618 69.231 16.4526C69.231 18.5434 69.9098 20.2853 71.2706 21.6813C72.6474 23.0581 74.3316 23.7465 76.32 23.7465C78.1387 23.7465 79.6532 23.2374 80.8603 22.216C82.0674 21.1946 82.7654 19.7922 82.9512 18.0087H76.32V15.8154H85.1701C85.2565 16.2925 85.2982 16.7504 85.2982 17.1922V17.189Z" fill="black"/>
<path d="M88.1541 25.5811V7.32385H93.7382C96.527 7.32385 98.7652 8.16596 100.459 9.84696C102.15 11.5312 102.995 13.7309 102.995 16.4525C102.995 19.1741 102.15 21.3962 100.459 23.0708C98.7684 24.7454 96.527 25.5811 93.7382 25.5811H88.1541ZM90.501 9.56519V23.3366H93.7382C95.8642 23.3366 97.5388 22.7282 98.762 21.5147C99.9851 20.298 100.597 18.6106 100.597 16.4525C100.597 14.2944 99.9851 12.6262 98.762 11.4031C97.5388 10.18 95.8642 9.56839 93.7382 9.56839H90.501V9.56519Z" fill="black"/>
<path d="M123.346 17.189C123.346 19.7378 122.591 21.771 121.076 23.2855C119.376 25.0881 117.141 25.9879 114.368 25.9879C111.596 25.9879 109.473 25.0689 107.635 23.2342C105.8 21.3995 104.881 19.139 104.881 16.4526C104.881 13.7662 105.8 11.5057 107.635 9.66776C109.469 7.83307 111.714 6.91412 114.368 6.91412C115.71 6.91412 116.978 7.15107 118.169 7.62815C119.36 8.10524 120.337 8.77443 121.102 9.64215L119.418 11.3263C118.857 10.6475 118.131 10.116 117.237 9.7318C116.344 9.35077 115.39 9.15866 114.368 9.15866C112.38 9.15866 110.696 9.84707 109.319 11.2239C107.958 12.6167 107.279 14.3618 107.279 16.4526C107.279 18.5434 107.958 20.2853 109.319 21.6813C110.696 23.0581 112.38 23.7465 114.368 23.7465C116.187 23.7465 117.702 23.2374 118.909 22.216C120.116 21.1946 120.814 19.7922 120.999 18.0087H114.368V15.8154H123.218C123.305 16.2925 123.346 16.7504 123.346 17.1922V17.189Z" fill="black"/>
<path d="M132.116 25.5811H129.516L136.4 7.32385H139.051L145.935 25.5811H143.336L141.574 20.6342H133.9L132.116 25.5811ZM137.675 10.2024L134.69 18.4409H140.761L137.777 10.2024H137.675Z" fill="black"/>
<path d="M150.018 7.32068V25.5779H147.671V7.32068H150.018Z" fill="black"/>
<path d="M158.282 31.4952C157.584 31.4952 156.931 31.4055 156.32 31.2262C155.708 31.0469 155.151 30.7972 154.648 30.4738C154.145 30.1504 153.716 29.7694 153.361 29.3275C153.002 28.8856 152.733 28.3925 152.545 27.8482L154.763 26.9293C155.02 27.6593 155.461 28.2452 156.089 28.6903C156.717 29.1322 157.45 29.3531 158.282 29.3531C159.557 29.3531 160.552 28.9721 161.266 28.2068C161.981 27.4416 162.339 26.3881 162.339 25.0433V23.8458H162.237C161.795 24.5086 161.196 25.0305 160.44 25.4148C159.685 25.7958 158.862 25.9879 157.978 25.9879C156.345 25.9879 154.943 25.3507 153.771 24.0764C152.615 22.7668 152.035 21.185 152.035 19.3343C152.035 17.4836 152.612 15.9083 153.771 14.6179C154.943 13.3276 156.345 12.6808 157.978 12.6808C158.862 12.6808 159.682 12.8729 160.44 13.2539C161.196 13.635 161.795 14.1601 162.237 14.8229H162.339V13.0874H164.584V25.0465C164.584 27.0509 164.014 28.6263 162.874 29.763C161.718 30.9188 160.187 31.4984 158.282 31.4984V31.4952ZM158.359 23.8458C159.515 23.8458 160.46 23.4296 161.19 22.5971C161.955 21.7646 162.336 20.6759 162.336 19.3343C162.336 17.9927 161.955 16.9457 161.19 16.0972C160.44 15.2487 159.499 14.8229 158.359 14.8229C157.219 14.8229 156.294 15.2487 155.529 16.0972C154.763 16.9489 154.382 18.028 154.382 19.3343C154.382 20.6407 154.763 21.739 155.529 22.5747C156.294 23.4264 157.238 23.849 158.359 23.849V23.8458Z" fill="black"/>
<path d="M170.472 8.77422C170.472 9.23209 170.309 9.62593 169.989 9.94612C169.665 10.2695 169.275 10.4296 168.817 10.4296C168.359 10.4296 167.965 10.2695 167.645 9.94612C167.321 9.62273 167.161 9.23209 167.161 8.77422C167.161 8.31635 167.321 7.92572 167.645 7.60233C167.968 7.27893 168.359 7.11884 168.817 7.11884C169.275 7.11884 169.665 7.28214 169.989 7.60233C170.312 7.92572 170.472 8.31635 170.472 8.77422ZM169.989 13.084V25.581H167.642V13.084H169.989Z" fill="black"/>
<path d="M178.531 25.9879C176.697 25.9879 175.182 25.3603 173.991 24.102C172.8 22.8436 172.208 21.2555 172.208 19.3343C172.208 17.4132 172.784 15.8443 173.943 14.5795C175.099 13.3116 176.578 12.6808 178.381 12.6808C180.183 12.6808 181.708 13.2795 182.806 14.4803C183.901 15.6778 184.452 17.3588 184.452 19.5169L184.426 19.773H174.609C174.644 20.9961 175.051 21.9823 175.832 22.7316C176.613 23.4808 177.548 23.8522 178.637 23.8522C180.132 23.8522 181.307 23.103 182.156 21.6077L184.247 22.6291C183.686 23.6825 182.908 24.5086 181.912 25.1042C180.917 25.6997 179.793 25.9975 178.534 25.9975L178.531 25.9879ZM174.782 17.8262H181.948C181.88 16.9585 181.528 16.2413 180.888 15.6714C180.251 15.1014 179.396 14.8165 178.326 14.8165C177.443 14.8165 176.681 15.0886 176.043 15.6329C175.406 16.1773 174.984 16.9073 174.782 17.8262Z" fill="black"/>
<path d="M188.934 25.5812H186.587V13.0841H188.832V15.1237H188.934C189.171 14.461 189.661 13.8974 190.401 13.4267C191.141 12.9593 191.867 12.7255 192.581 12.7255C193.295 12.7255 193.84 12.828 194.317 13.0329L193.603 15.3031C193.315 15.1846 192.854 15.1237 192.226 15.1237C191.342 15.1237 190.574 15.4824 189.917 16.1964C189.261 16.9104 188.934 17.7429 188.934 18.6939V25.578V25.5812Z" fill="black"/>
<path d="M204.899 22.1135C204.899 23.2022 204.422 24.1211 203.471 24.8671C202.52 25.6164 201.319 25.9878 199.875 25.9878C198.617 25.9878 197.512 25.6612 196.561 25.0048C195.61 24.3516 194.928 23.4871 194.521 22.4177L196.612 21.5244C196.92 22.2736 197.365 22.8564 197.951 23.2726C198.537 23.6888 199.18 23.897 199.875 23.897C200.624 23.897 201.249 23.7369 201.748 23.4135C202.251 23.0901 202.501 22.7091 202.501 22.2672C202.501 21.4667 201.889 20.8808 200.666 20.5062L198.524 19.9714C196.094 19.3599 194.877 18.188 194.877 16.4525C194.877 15.3127 195.341 14.4001 196.267 13.7117C197.192 13.0233 198.38 12.6775 199.824 12.6775C200.928 12.6775 201.927 12.94 202.821 13.4684C203.714 13.9967 204.339 14.7011 204.694 15.5848L202.603 16.4525C202.366 15.9242 201.979 15.5144 201.444 15.2166C200.909 14.9188 200.311 14.7715 199.648 14.7715C199.036 14.7715 198.489 14.9252 198.002 15.2294C197.518 15.5368 197.275 15.9082 197.275 16.3501C197.275 17.0641 197.948 17.5732 199.289 17.8806L201.175 18.3641C203.657 18.9756 204.899 20.2244 204.899 22.1135Z" fill="black"/>
<path fill-rule="evenodd" clip-rule="evenodd" d="M16.9054 4.58307L2.23427 13.0553C0.223474 14.2144 -0.464935 16.7855 0.697356 18.7963C1.85645 20.8071 4.42758 21.4955 6.43837 20.3332L21.1095 11.8642C23.1203 10.7051 23.8087 8.13398 22.6464 6.12318C21.4873 4.11239 18.9162 3.42398 16.9054 4.58627V4.58307Z" fill="#EA4334"/>
<path fill-rule="evenodd" clip-rule="evenodd" d="M20.9751 21.5913L6.30393 13.1223C4.29313 11.9632 1.7252 12.6516 0.56291 14.6592C-0.596179 16.67 0.09223 19.2379 2.09982 20.4002L16.771 28.8693C18.7817 30.0284 21.3497 29.3399 22.512 27.3324C23.6711 25.3216 22.9826 22.7536 20.9751 21.5913Z" fill="#4285F4"/>
<path fill-rule="evenodd" clip-rule="evenodd" d="M30.7859 21.726L45.457 13.2569C47.4678 12.0979 50.0357 12.7863 51.198 14.7939C52.3571 16.8047 51.6687 19.3726 49.6611 20.5349L34.99 29.0039C32.9792 30.163 30.4112 29.4746 29.2489 27.467C28.0899 25.4562 28.7783 22.8883 30.7859 21.726Z" fill="#FCBC05"/>
<path fill-rule="evenodd" clip-rule="evenodd" d="M35.1215 4.71768L49.7926 13.1867C51.8034 14.3458 52.4918 16.9169 51.3295 18.9277C50.1704 20.9385 47.5993 21.6269 45.5885 20.4647L30.9174 11.9956C28.9066 10.8365 28.2182 8.26539 29.3805 6.2546C30.5396 4.2438 33.1107 3.55539 35.1215 4.71768Z" fill="#0D9D58"/>
<path d="M256.936 31.7799H247.504C242.182 29.4169 238.042 25.3537 235.112 19.6383C235.141 19.5422 235.151 19.4398 235.135 19.3341C234.449 14.2015 234.273 7.99297 234.645 1.85172C234.67 1.44187 234.357 1.08967 233.947 1.06405C233.562 1.03844 233.185 1.35222 233.159 1.76206C232.88 6.37921 232.906 11.0412 233.223 15.2709C232.57 13.465 232.01 11.5343 231.545 9.47225C231.536 9.43063 231.523 9.3922 231.507 9.35698C231.728 6.66738 232.15 3.84971 232.772 0.90075C232.858 0.49731 232.599 0.103478 232.195 0.0170263C231.795 -0.0694251 231.398 0.189927 231.315 0.590165C230.876 2.6618 230.54 4.6726 230.293 6.62256C230.152 6.6898 230.037 6.80186 229.964 6.93634C229.23 6.81147 228.497 6.80186 227.767 6.91393C227.725 6.78265 227.645 6.66738 227.54 6.57773C227.251 4.56053 226.819 2.54653 226.236 0.535733C226.124 0.141899 225.711 -0.0854368 225.314 0.0298318C224.921 0.1451 224.693 0.558148 224.808 0.951982C225.593 3.65119 226.096 6.36 226.326 9.07521C226.329 9.12644 226.333 9.17447 226.339 9.2257C226.339 9.23531 226.336 9.24491 226.333 9.25452C226.323 9.29294 226.313 9.33137 226.31 9.37299C226.06 12.3123 225.382 15.066 224.28 17.6275C224.728 13.1608 224.863 7.85209 224.68 1.77807C224.668 1.36823 224.331 1.04484 223.912 1.05765C223.502 1.07045 223.179 1.41306 223.191 1.8229C223.425 9.62915 223.134 16.1482 222.324 21.1912C222.317 21.2328 222.317 21.2745 222.317 21.3129C219.711 25.3697 215.872 28.8662 210.813 31.7703H202.751C202.411 31.7703 202.136 32.0457 202.136 32.3851C202.136 32.7245 202.411 32.9998 202.751 32.9998H256.943C257.282 32.9998 257.558 32.7245 257.558 32.3851C257.558 32.0457 257.282 31.7703 256.943 31.7703L256.936 31.7799ZM229.986 17.5154C230.092 18.8186 230.255 20.0898 230.476 21.3289C230.156 20.4964 229.861 19.6703 229.598 18.8474C229.736 18.4024 229.867 17.9573 229.989 17.5154H229.986ZM227.818 9.06881C227.828 9.19369 227.834 9.31536 227.844 9.44023C227.853 9.5651 227.863 9.68998 227.869 9.81165H229.803C229.672 11.8609 229.346 13.9549 228.817 16.097C228.379 14.3167 228.081 12.5653 227.924 10.8459C227.892 10.5001 227.869 10.1543 227.847 9.81165C227.841 9.68678 227.831 9.5619 227.825 9.44023C227.818 9.31536 227.815 9.19049 227.812 9.06881H227.818ZM227.649 17.525C227.77 17.9637 227.895 18.4024 228.033 18.8442C227.677 19.9553 227.274 21.076 226.813 22.2094C227.178 20.6501 227.456 19.0876 227.645 17.5282L227.649 17.525ZM221.815 31.7799H213.666C219.884 27.7423 224.085 22.7153 226.23 16.7502C225.692 21.7612 224.219 26.7785 221.815 31.7799ZM228.603 31.7799C228.686 31.0787 228.76 30.3583 228.824 29.6122C228.888 30.3583 228.965 31.0787 229.045 31.7799H228.599H228.603ZM234.059 31.7799H229.794C229.458 28.9558 229.262 25.7828 229.205 22.1774C229.198 22.1614 229.192 22.1454 229.185 22.1326C229.189 21.87 229.192 21.6011 229.195 21.3353C229.192 20.9287 229.189 20.5188 229.185 20.1026C229.185 19.7023 229.185 19.3021 229.185 18.8891C229.185 18.6873 229.022 18.5208 228.82 18.5176C228.619 18.5208 228.455 18.6873 228.455 18.8891C228.455 19.3181 228.455 19.7344 228.455 20.1506C228.455 20.5508 228.452 20.9447 228.446 21.3353C228.446 21.5915 228.449 21.8508 228.455 22.1038C228.449 22.1198 228.446 22.1326 228.439 22.1486C228.382 25.7667 228.186 28.9494 227.85 31.7831H223.46C223.621 31.4437 227.267 25.1616 228.439 22.1486C228.443 21.8828 228.446 21.6075 228.449 21.3385C228.446 20.9319 228.443 20.522 228.439 20.1058C228.439 19.7023 228.439 19.3021 228.439 18.8891C228.439 18.6841 228.606 18.5176 228.811 18.5176C228.811 18.5176 228.814 18.5176 228.817 18.5176C228.817 18.5176 228.82 18.5176 228.824 18.5176C229.029 18.5176 229.195 18.6841 229.195 18.8891C229.195 19.2861 229.195 19.6703 229.195 20.0578C229.195 20.49 229.192 20.9159 229.185 21.3385C229.185 21.6203 229.189 21.9053 229.195 22.1806C230.341 25.0911 234.02 31.6967 234.075 31.7831H234.049L234.059 31.7799ZM235.842 31.7799H235.772C235.592 31.4693 235.42 31.1523 235.253 30.8354C232.72 26.0389 231.417 20.5669 231.334 14.3456C233.947 22.4304 238.266 28.2674 244.241 31.7831H235.845L235.842 31.7799Z" fill="black"/>
</svg>
