<svg width="321" height="225" viewBox="0 0 321 225" fill="none" xmlns="http://www.w3.org/2000/svg">
<g opacity="0.8">
<path d="M44.7397 111.012C54.5016 111.012 63.8636 107.114 70.7663 100.175C77.669 93.2359 81.5469 83.8247 81.5469 74.0114C81.5469 64.1982 77.669 54.7869 70.7663 47.848C63.8636 40.909 54.5016 37.0107 44.7397 37.0107L44.7397 74.0114L44.7397 111.012Z" fill="#EA4334"/>
<path d="M198.864 111.012C208.626 111.012 217.988 107.114 224.891 100.175C231.793 93.2359 235.671 83.8247 235.671 74.0114C235.671 64.1982 231.793 54.7869 224.891 47.848C217.988 40.909 208.626 37.0107 198.864 37.0107L198.864 74.0114V111.012Z" fill="#2B82FB"/>
<path d="M278.226 37.0099C278.226 41.8689 277.244 46.6804 275.337 51.1695C273.429 55.6586 270.633 59.7376 267.109 63.1734C263.584 66.6092 259.4 69.3347 254.795 71.1942C250.189 73.0536 245.254 74.0107 240.269 74.0107V37.0099H278.226Z" fill="white"/>
<path d="M240.113 74.0256C245.087 74.0235 250.013 74.9783 254.609 76.8354C259.205 78.6925 263.382 81.4156 266.901 84.8492C270.42 88.2828 273.212 92.3597 275.117 96.8471C277.023 101.334 278.005 106.144 278.007 111.002L240.13 111.018L240.113 74.0256Z" fill="#EA4334"/>
<path d="M279.379 37.0117H307.987C315.056 37.0117 320.787 42.7425 320.787 49.8117V74.0125H292.179C285.11 74.0125 279.379 68.2817 279.379 61.2125V37.0117Z" fill="#EA4334"/>
<path d="M0.519531 37.0117H29.1276C36.1968 37.0117 41.9276 42.7425 41.9276 49.8117V74.0125H13.3195C6.25028 74.0125 0.519531 68.2817 0.519531 61.2125V37.0117Z" fill="#2B82FB"/>
<path d="M279.379 111.031V86.8305C279.379 79.7613 285.11 74.0305 292.179 74.0305H320.787V98.2312C320.787 105.3 315.056 111.031 307.987 111.031H279.379Z" fill="#2B82FB"/>
<path d="M0.519531 111.031L0.519531 86.8305C0.519531 79.7613 6.25029 74.0305 13.3195 74.0305H41.9276V98.2312C41.9276 105.3 36.1968 111.031 29.1276 111.031H0.519531Z" fill="#2B82FB"/>
<path d="M198.864 111.012C189.102 111.012 179.74 107.114 172.837 100.175C165.935 93.2359 162.057 83.8247 162.057 74.0114C162.057 64.1982 165.935 54.7869 172.837 47.848C179.74 40.909 189.102 37.0107 198.864 37.0107L198.864 74.0114V111.012Z" fill="#0D9D58"/>
<path d="M83.8464 111.012C88.68 111.012 93.4663 110.055 97.9319 108.196C102.398 106.336 106.455 103.611 109.873 100.175C113.291 96.7391 116.002 92.6602 117.852 88.171C119.702 83.6819 120.654 78.8704 120.654 74.0114H83.8464L83.8464 111.012Z" fill="#2B82FB"/>
<path d="M120.63 74.0978C115.816 74.1126 111.047 73.1705 106.593 71.3251C102.139 69.4797 98.0891 66.7673 94.6736 63.3427C91.258 59.9181 88.544 55.8484 86.6865 51.3659C84.8289 46.8834 83.8643 42.076 83.8476 37.2181L120.503 37.1053L120.63 74.0978Z" fill="#0D9D58"/>
<path d="M120.652 73.9834C120.652 69.4102 121.664 64.8818 123.629 60.6567C125.594 56.4316 128.475 52.5926 132.106 49.3589C135.738 46.1252 140.049 43.56 144.794 41.81C149.539 40.0599 154.624 39.1591 159.76 39.1591L159.76 73.9834H120.652Z" fill="#2B82FB"/>
<path d="M120.643 74.0248C125.477 74.0248 130.263 74.9818 134.729 76.8413C139.194 78.7008 143.252 81.4262 146.67 84.8621C150.087 88.2979 152.799 92.3768 154.648 96.866C156.498 101.355 157.45 106.167 157.45 111.026H120.643V74.0248Z" fill="#0D9D58"/>
</g>
<g opacity="0.8">
<path d="M44.7427 187.043C54.5045 187.043 63.8666 183.145 70.7692 176.206C77.6719 169.267 81.5498 159.856 81.5498 150.043C81.5498 140.229 77.6719 130.818 70.7692 123.879C63.8666 116.94 54.5045 113.042 44.7427 113.042L44.7427 150.043L44.7427 187.043Z" fill="#FFBA00"/>
<path d="M198.871 187.043C208.633 187.043 217.995 183.145 224.898 176.206C231.8 169.267 235.678 159.856 235.678 150.043C235.678 140.229 231.8 130.818 224.898 123.879C217.995 116.94 208.633 113.042 198.871 113.042L198.871 150.043V187.043Z" fill="#EA4334"/>
<path d="M278.23 113.037C278.23 117.896 277.248 122.708 275.341 127.197C273.433 131.686 270.637 135.765 267.113 139.201C263.588 142.637 259.404 145.362 254.798 147.222C250.193 149.081 245.257 150.038 240.273 150.038V113.037H278.23Z" fill="white"/>
<path d="M240.116 150.045C245.09 150.043 250.016 150.998 254.612 152.855C259.209 154.712 263.385 157.435 266.904 160.869C270.423 164.302 273.215 168.379 275.121 172.867C277.026 177.354 278.008 182.164 278.011 187.022L240.133 187.038L240.116 150.045Z" fill="#FFBA00"/>
<path d="M279.382 113.043H307.99C315.06 113.043 320.79 118.774 320.79 125.843V150.044H292.182C285.113 150.044 279.382 144.313 279.382 137.244V113.043Z" fill="#FFBA00"/>
<path d="M0.519531 113.043H29.1276C36.1968 113.043 41.9276 118.774 41.9276 125.843V150.044H13.3195C6.25028 150.044 0.519531 144.313 0.519531 137.244V113.043Z" fill="#EA4334"/>
<path d="M279.382 187.059V162.858C279.382 155.789 285.113 150.058 292.182 150.058H320.79V174.259C320.79 181.328 315.06 187.059 307.99 187.059H279.382Z" fill="white"/>
<path d="M0.519531 187.059L0.519531 162.858C0.519531 155.789 6.25029 150.058 13.3195 150.058H41.9276V174.259C41.9276 181.328 36.1968 187.059 29.1276 187.059H0.519531Z" fill="white"/>
<path d="M198.871 187.043C189.109 187.043 179.747 183.145 172.845 176.206C165.942 169.267 162.064 159.856 162.064 150.043C162.064 140.229 165.942 130.818 172.845 123.879C179.747 116.94 189.109 113.042 198.871 113.042L198.871 150.043V187.043Z" fill="#2B82FB"/>
<path d="M83.8496 187.043C88.6832 187.043 93.4694 186.086 97.9351 184.227C102.401 182.367 106.458 179.642 109.876 176.206C113.294 172.77 116.005 168.691 117.855 164.202C119.705 159.713 120.657 154.902 120.657 150.043H83.8496L83.8496 187.043Z" fill="#EA4334"/>
<path d="M120.633 150.125C115.819 150.14 111.05 149.198 106.596 147.352C102.142 145.507 98.0923 142.795 94.6767 139.37C91.2612 135.945 88.5472 131.876 86.6896 127.393C84.8321 122.911 83.8675 118.103 83.8508 113.245L120.506 113.133L120.633 150.125Z" fill="#2B82FB"/>
<path d="M120.655 150.015C120.655 145.441 121.667 140.913 123.632 136.688C125.597 132.463 128.478 128.624 132.109 125.39C135.741 122.156 140.052 119.591 144.797 117.841C149.541 116.091 154.627 115.19 159.763 115.19L159.763 150.015H120.655Z" fill="#EA4334"/>
<path d="M120.645 150.044C125.479 150.044 130.265 151.001 134.731 152.861C139.196 154.72 143.254 157.446 146.672 160.882C150.09 164.317 152.801 168.396 154.651 172.886C156.5 177.375 157.452 182.186 157.452 187.045H120.645V150.044Z" fill="#2B82FB"/>
</g>
</svg>
