<svg width="1280" height="112" viewBox="0 0 1280 112" fill="none" xmlns="http://www.w3.org/2000/svg">
<g opacity="0.8">
<path d="M44.2202 111.012C53.9821 111.012 63.3441 107.114 70.2468 100.175C77.1495 93.236 81.0273 83.8247 81.0273 74.0115C81.0273 64.1982 77.1495 54.787 70.2468 47.848C63.3441 40.909 53.9821 37.0107 44.2202 37.0107L44.2202 74.0115L44.2202 111.012Z" fill="#EA4334"/>
<path d="M198.344 111.012C208.106 111.012 217.468 107.114 224.371 100.175C231.274 93.236 235.152 83.8247 235.152 74.0115C235.152 64.1982 231.274 54.787 224.371 47.848C217.468 40.909 208.106 37.0107 198.344 37.0107L198.344 74.0115V111.012Z" fill="#2B82FB"/>
<path d="M277.707 37.0099C277.707 41.8689 276.725 46.6804 274.817 51.1695C272.91 55.6587 270.114 59.7376 266.589 63.1734C263.065 66.6093 258.88 69.3347 254.275 71.1942C249.67 73.0536 244.734 74.0107 239.749 74.0107L239.749 37.0099H277.707Z" fill="white"/>
<path d="M239.593 74.0256C244.567 74.0235 249.493 74.9783 254.089 76.8354C258.686 78.6925 262.863 81.4156 266.382 84.8492C269.9 88.2828 272.692 92.3597 274.598 96.8471C276.504 101.334 277.486 106.144 277.488 111.002L239.611 111.018L239.593 74.0256Z" fill="#EA4334"/>
<path d="M278.86 37.0117H307.468C314.537 37.0117 320.268 42.7425 320.268 49.8117V74.0125H291.66C284.59 74.0125 278.86 68.2817 278.86 61.2125V37.0117Z" fill="#EA4334"/>
<path d="M0 37.0117H28.608C35.6773 37.0117 41.408 42.7425 41.408 49.8117V74.0125H12.8C5.73074 74.0125 0 68.2817 0 61.2125V37.0117Z" fill="#2B82FB"/>
<path d="M278.86 111.031V86.8305C278.86 79.7613 284.59 74.0305 291.66 74.0305H320.268V98.2312C320.268 105.3 314.537 111.031 307.468 111.031H278.86Z" fill="#2B82FB"/>
<path d="M0 111.031L0 86.8305C0 79.7613 5.73076 74.0305 12.8 74.0305H41.408V98.2312C41.408 105.3 35.6773 111.031 28.608 111.031H0Z" fill="#2B82FB"/>
<path d="M198.344 111.012C188.583 111.012 179.221 107.114 172.318 100.175C165.415 93.236 161.537 83.8247 161.537 74.0115C161.537 64.1982 165.415 54.787 172.318 47.848C179.221 40.909 188.583 37.0107 198.344 37.0107L198.344 74.0115V111.012Z" fill="#0D9D58"/>
<path d="M83.3269 111.012C88.1605 111.012 92.9467 110.055 97.4124 108.196C101.878 106.336 105.936 103.611 109.353 100.175C112.771 96.7391 115.483 92.6602 117.332 88.171C119.182 83.6819 120.134 78.8705 120.134 74.0115L83.3269 74.0115L83.3269 111.012Z" fill="#2B82FB"/>
<path d="M120.11 74.0978C115.297 74.1126 110.527 73.1705 106.073 71.3251C101.62 69.4797 97.5696 66.7673 94.154 63.3427C90.7385 59.9181 88.0245 55.8484 86.1669 51.3659C84.3094 46.8834 83.3448 42.076 83.3281 37.2181L119.983 37.1053L120.11 74.0978Z" fill="#0D9D58"/>
<path d="M120.133 73.9834C120.133 69.4102 121.144 64.8818 123.109 60.6567C125.075 56.4317 127.955 52.5927 131.587 49.3589C135.218 46.1252 139.53 43.5601 144.274 41.81C149.019 40.0599 154.104 39.1591 159.24 39.1591L159.24 73.9834H120.133Z" fill="#2B82FB"/>
<path d="M120.124 74.0248C124.957 74.0248 129.743 74.9818 134.209 76.8413C138.675 78.7008 142.732 81.4262 146.15 84.8621C149.568 88.2979 152.279 92.3768 154.129 96.866C155.979 101.355 156.931 106.167 156.931 111.026L120.124 111.026V74.0248Z" fill="#0D9D58"/>
</g>
<g opacity="0.8">
<path d="M364.22 111.012C373.982 111.012 383.344 107.114 390.247 100.175C397.149 93.236 401.027 83.8247 401.027 74.0115C401.027 64.1982 397.149 54.787 390.247 47.848C383.344 40.909 373.982 37.0107 364.22 37.0107L364.22 74.0115V111.012Z" fill="#EA4334"/>
<path d="M518.344 111.012C528.106 111.012 537.468 107.114 544.371 100.175C551.274 93.236 555.152 83.8247 555.152 74.0115C555.152 64.1982 551.274 54.787 544.371 47.848C537.468 40.909 528.106 37.0107 518.344 37.0107L518.344 74.0115V111.012Z" fill="#2B82FB"/>
<path d="M597.707 37.0099C597.707 41.8689 596.725 46.6804 594.817 51.1695C592.91 55.6587 590.114 59.7376 586.589 63.1734C583.065 66.6093 578.88 69.3347 574.275 71.1942C569.67 73.0536 564.734 74.0107 559.749 74.0107L559.749 37.0099H597.707Z" fill="white"/>
<path d="M559.593 74.0256C564.567 74.0235 569.493 74.9783 574.089 76.8354C578.686 78.6925 582.863 81.4156 586.382 84.8492C589.9 88.2828 592.692 92.3597 594.598 96.8471C596.504 101.334 597.486 106.144 597.488 111.002L559.611 111.018L559.593 74.0256Z" fill="#EA4334"/>
<path d="M598.86 37.0117H627.468C634.537 37.0117 640.268 42.7425 640.268 49.8117V74.0125H611.66C604.59 74.0125 598.86 68.2817 598.86 61.2125V37.0117Z" fill="#EA4334"/>
<path d="M320 37.0117H348.608C355.677 37.0117 361.408 42.7425 361.408 49.8117V74.0125H332.8C325.731 74.0125 320 68.2817 320 61.2125V37.0117Z" fill="#2B82FB"/>
<path d="M598.86 111.031V86.8305C598.86 79.7613 604.59 74.0305 611.66 74.0305H640.268V98.2312C640.268 105.3 634.537 111.031 627.468 111.031H598.86Z" fill="#2B82FB"/>
<path d="M320 111.031V86.8305C320 79.7613 325.731 74.0305 332.8 74.0305H361.408V98.2312C361.408 105.3 355.677 111.031 348.608 111.031H320Z" fill="#2B82FB"/>
<path d="M518.344 111.012C508.583 111.012 499.221 107.114 492.318 100.175C485.415 93.236 481.537 83.8247 481.537 74.0115C481.537 64.1982 485.415 54.787 492.318 47.848C499.221 40.909 508.583 37.0107 518.344 37.0107L518.344 74.0115V111.012Z" fill="#0D9D58"/>
<path d="M403.327 111.012C408.16 111.012 412.947 110.055 417.412 108.196C421.878 106.336 425.936 103.611 429.353 100.175C432.771 96.7391 435.483 92.6602 437.332 88.171C439.182 83.6819 440.134 78.8705 440.134 74.0115L403.327 74.0115V111.012Z" fill="#2B82FB"/>
<path d="M440.11 74.0978C435.297 74.1126 430.527 73.1705 426.073 71.3251C421.62 69.4797 417.57 66.7673 414.154 63.3427C410.738 59.9181 408.024 55.8484 406.167 51.3659C404.309 46.8834 403.345 42.076 403.328 37.2181L439.983 37.1053L440.11 74.0978Z" fill="#0D9D58"/>
<path d="M440.133 73.9834C440.133 69.4102 441.144 64.8818 443.109 60.6567C445.075 56.4317 447.955 52.5927 451.587 49.3589C455.218 46.1252 459.53 43.5601 464.274 41.81C469.019 40.0599 474.104 39.1591 479.24 39.1591L479.24 73.9834H440.133Z" fill="#2B82FB"/>
<path d="M440.124 74.0248C444.957 74.0248 449.743 74.9818 454.209 76.8413C458.675 78.7008 462.732 81.4262 466.15 84.8621C469.568 88.2979 472.279 92.3768 474.129 96.866C475.979 101.355 476.931 106.167 476.931 111.026L440.124 111.026V74.0248Z" fill="#0D9D58"/>
</g>
<g opacity="0.8">
<path d="M684.22 111.012C693.982 111.012 703.344 107.114 710.247 100.175C717.149 93.236 721.027 83.8247 721.027 74.0115C721.027 64.1982 717.149 54.787 710.247 47.848C703.344 40.909 693.982 37.0107 684.22 37.0107L684.22 74.0115V111.012Z" fill="#EA4334"/>
<path d="M838.344 111.012C848.106 111.012 857.468 107.114 864.371 100.175C871.274 93.236 875.152 83.8247 875.152 74.0115C875.152 64.1982 871.274 54.787 864.371 47.848C857.468 40.909 848.106 37.0107 838.344 37.0107L838.344 74.0115V111.012Z" fill="#2B82FB"/>
<path d="M917.707 37.0099C917.707 41.8689 916.725 46.6804 914.817 51.1695C912.91 55.6587 910.114 59.7376 906.589 63.1734C903.065 66.6093 898.88 69.3347 894.275 71.1942C889.67 73.0536 884.734 74.0107 879.749 74.0107L879.749 37.0099H917.707Z" fill="white"/>
<path d="M879.593 74.0256C884.567 74.0235 889.493 74.9783 894.089 76.8354C898.686 78.6925 902.863 81.4156 906.382 84.8492C909.9 88.2828 912.692 92.3597 914.598 96.8471C916.504 101.334 917.486 106.144 917.488 111.002L879.611 111.018L879.593 74.0256Z" fill="#EA4334"/>
<path d="M918.86 37.0117H947.468C954.537 37.0117 960.268 42.7425 960.268 49.8117V74.0125H931.66C924.59 74.0125 918.86 68.2817 918.86 61.2125V37.0117Z" fill="#EA4334"/>
<path d="M640 37.0117H668.608C675.677 37.0117 681.408 42.7425 681.408 49.8117V74.0125H652.8C645.731 74.0125 640 68.2817 640 61.2125V37.0117Z" fill="#2B82FB"/>
<path d="M918.86 111.031V86.8305C918.86 79.7613 924.59 74.0305 931.66 74.0305H960.268V98.2312C960.268 105.3 954.537 111.031 947.468 111.031H918.86Z" fill="#2B82FB"/>
<path d="M640 111.031V86.8305C640 79.7613 645.731 74.0305 652.8 74.0305H681.408V98.2312C681.408 105.3 675.677 111.031 668.608 111.031H640Z" fill="#2B82FB"/>
<path d="M838.344 111.012C828.583 111.012 819.221 107.114 812.318 100.175C805.415 93.236 801.537 83.8247 801.537 74.0115C801.537 64.1982 805.415 54.787 812.318 47.848C819.221 40.909 828.583 37.0107 838.344 37.0107L838.344 74.0115V111.012Z" fill="#0D9D58"/>
<path d="M723.327 111.012C728.16 111.012 732.947 110.055 737.412 108.196C741.878 106.336 745.936 103.611 749.353 100.175C752.771 96.7391 755.483 92.6602 757.332 88.171C759.182 83.6819 760.134 78.8705 760.134 74.0115L723.327 74.0115V111.012Z" fill="#2B82FB"/>
<path d="M760.11 74.0978C755.297 74.1126 750.527 73.1705 746.073 71.3251C741.62 69.4797 737.57 66.7673 734.154 63.3427C730.738 59.9181 728.024 55.8484 726.167 51.3659C724.309 46.8834 723.345 42.076 723.328 37.2181L759.983 37.1053L760.11 74.0978Z" fill="#0D9D58"/>
<path d="M760.133 73.9834C760.133 69.4102 761.144 64.8818 763.109 60.6567C765.075 56.4317 767.955 52.5927 771.587 49.3589C775.218 46.1252 779.53 43.5601 784.274 41.81C789.019 40.0599 794.104 39.1591 799.24 39.1591L799.24 73.9834H760.133Z" fill="#2B82FB"/>
<path d="M760.124 74.0248C764.957 74.0248 769.743 74.9818 774.209 76.8413C778.675 78.7008 782.732 81.4262 786.15 84.8621C789.568 88.2979 792.279 92.3768 794.129 96.866C795.979 101.355 796.931 106.167 796.931 111.026L760.124 111.026V74.0248Z" fill="#0D9D58"/>
</g>
<g opacity="0.8">
<path d="M1004.22 111.012C1013.98 111.012 1023.34 107.114 1030.25 100.175C1037.15 93.236 1041.03 83.8247 1041.03 74.0115C1041.03 64.1982 1037.15 54.787 1030.25 47.848C1023.34 40.909 1013.98 37.0107 1004.22 37.0107L1004.22 74.0115V111.012Z" fill="#EA4334"/>
<path d="M1158.34 111.012C1168.11 111.012 1177.47 107.114 1184.37 100.175C1191.27 93.236 1195.15 83.8247 1195.15 74.0115C1195.15 64.1982 1191.27 54.787 1184.37 47.848C1177.47 40.909 1168.11 37.0107 1158.34 37.0107L1158.34 74.0115V111.012Z" fill="#2B82FB"/>
<path d="M1237.71 37.0099C1237.71 41.8689 1236.72 46.6804 1234.82 51.1695C1232.91 55.6587 1230.11 59.7376 1226.59 63.1734C1223.06 66.6093 1218.88 69.3347 1214.28 71.1942C1209.67 73.0536 1204.73 74.0107 1199.75 74.0107L1199.75 37.0099H1237.71Z" fill="white"/>
<path d="M1199.59 74.0256C1204.57 74.0235 1209.49 74.9783 1214.09 76.8354C1218.69 78.6925 1222.86 81.4156 1226.38 84.8492C1229.9 88.2828 1232.69 92.3597 1234.6 96.8471C1236.5 101.334 1237.49 106.144 1237.49 111.002L1199.61 111.018L1199.59 74.0256Z" fill="#EA4334"/>
<path d="M1238.86 37.0117H1267.47C1274.54 37.0117 1280.27 42.7425 1280.27 49.8117V74.0125H1251.66C1244.59 74.0125 1238.86 68.2817 1238.86 61.2125V37.0117Z" fill="#EA4334"/>
<path d="M960 37.0117H988.608C995.677 37.0117 1001.41 42.7425 1001.41 49.8117V74.0125H972.8C965.731 74.0125 960 68.2817 960 61.2125V37.0117Z" fill="#2B82FB"/>
<path d="M1238.86 111.031V86.8305C1238.86 79.7613 1244.59 74.0305 1251.66 74.0305H1280.27V98.2312C1280.27 105.3 1274.54 111.031 1267.47 111.031H1238.86Z" fill="#2B82FB"/>
<path d="M960 111.031V86.8305C960 79.7613 965.731 74.0305 972.8 74.0305H1001.41V98.2312C1001.41 105.3 995.677 111.031 988.608 111.031H960Z" fill="#2B82FB"/>
<path d="M1158.34 111.012C1148.58 111.012 1139.22 107.114 1132.32 100.175C1125.42 93.236 1121.54 83.8247 1121.54 74.0115C1121.54 64.1982 1125.42 54.787 1132.32 47.848C1139.22 40.909 1148.58 37.0107 1158.34 37.0107L1158.34 74.0115V111.012Z" fill="#0D9D58"/>
<path d="M1043.33 111.012C1048.16 111.012 1052.95 110.055 1057.41 108.196C1061.88 106.336 1065.94 103.611 1069.35 100.175C1072.77 96.7391 1075.48 92.6602 1077.33 88.171C1079.18 83.6819 1080.13 78.8705 1080.13 74.0115L1043.33 74.0115V111.012Z" fill="#2B82FB"/>
<path d="M1080.11 74.0978C1075.3 74.1126 1070.53 73.1705 1066.07 71.3251C1061.62 69.4797 1057.57 66.7673 1054.15 63.3427C1050.74 59.9181 1048.02 55.8484 1046.17 51.3659C1044.31 46.8834 1043.34 42.076 1043.33 37.2181L1079.98 37.1053L1080.11 74.0978Z" fill="#0D9D58"/>
<path d="M1080.13 73.9834C1080.13 69.4102 1081.14 64.8818 1083.11 60.6567C1085.07 56.4317 1087.96 52.5927 1091.59 49.3589C1095.22 46.1252 1099.53 43.5601 1104.27 41.81C1109.02 40.0599 1114.1 39.1591 1119.24 39.1591L1119.24 73.9834H1080.13Z" fill="#2B82FB"/>
<path d="M1080.12 74.0248C1084.96 74.0248 1089.74 74.9818 1094.21 76.8413C1098.67 78.7008 1102.73 81.4262 1106.15 84.8621C1109.57 88.2979 1112.28 92.3768 1114.13 96.866C1115.98 101.355 1116.93 106.167 1116.93 111.026L1080.12 111.026V74.0248Z" fill="#0D9D58"/>
</g>
</svg>
